<?xml version="1.0" encoding="utf-8"?>
<!-- Generator: Adobe Illustrator 16.0.0, SVG Export Plug-In . SVG Version: 6.00 Build 0)  -->
<!DOCTYPE svg PUBLIC "-//W3C//DTD SVG 1.1//EN" "http://www.w3.org/Graphics/SVG/1.1/DTD/svg11.dtd">
<svg version="1.1" id="Icon" xmlns:sketch="http://www.bohemiancoding.com/sketch/ns"
	 xmlns="http://www.w3.org/2000/svg" xmlns:xlink="http://www.w3.org/1999/xlink" x="0px" y="0px" width="800px" height="800px"
	 viewBox="0 0 800 800" enable-background="new 0 0 800 800" xml:space="preserve">
<rect id="base" sketch:type="MSShapeGroup" fill="#3498DB" width="800" height="800">
</rect>
<g id="q" transform="translate(150.000000, 75.000000)" sketch:type="MSShapeGroup">
	<path id="Oval-1-copy" opacity="0.5" fill="#ECF0F1" enable-background="new    " d="M250,450c-110.457,0-200-89.543-200-200
		S139.543,50,250,50s200,89.543,200,200v188.012v148.61C464.709,595.13,481.785,600,500,600v50h-25h25V250
		C500,111.929,388.071,0,250,0S0,111.929,0,250s111.929,250,250,250c35.556,0,69.377-7.422,100-20.802v-55.955
		C320.583,440.261,286.429,450,250,450z"/>
	<path id="Oval-9" fill="#ECF0F1" d="M400,319.098V500c0,55.229,44.771,100,100,100v50c-82.843,0-150-67.157-150-150V361.806
		C323.462,385.558,288.418,400,250,400c-82.843,0-150-67.157-150-150s67.157-150,150-150s150,67.157,150,150V319.098z M250,350
		c55.229,0,100-44.771,100-100s-44.771-100-100-100s-100,44.771-100,100S194.771,350,250,350z"/>
</g>
</svg>
